<svg width="39" height="38" viewBox="0 0 39 38" fill="none" xmlns="http://www.w3.org/2000/svg">
<rect x="0.701923" y="0.701923" width="37.5962" height="36.5962" rx="18.2981" fill="url(#paint0_linear_11_250)"/>
<rect x="0.701923" y="0.701923" width="37.5962" height="36.5962" rx="18.2981" stroke="#2F701E" stroke-width="1.40385"/>
<g clip-path="url(#clip0_11_250)">
<path d="M27.0469 22.3707L19.5 26.7716L11.9531 22.3707C11.8037 22.2963 11.6316 22.2816 11.4717 22.3297C11.3118 22.3777 11.1763 22.4849 11.0927 22.6294C11.0091 22.7738 10.9836 22.9447 11.0216 23.1073C11.0595 23.2698 11.158 23.4118 11.2969 23.5043L19.1719 28.0981C19.2722 28.1566 19.3863 28.1874 19.5025 28.1874C19.6186 28.1874 19.7327 28.1566 19.8331 28.0981L27.7081 23.5043C27.7837 23.4615 27.8501 23.4042 27.9034 23.3355C27.9566 23.2668 27.9958 23.1883 28.0184 23.1044C28.0411 23.0205 28.0469 22.9329 28.0354 22.8468C28.024 22.7606 27.9956 22.6776 27.9518 22.6026C27.908 22.5275 27.8498 22.4619 27.7804 22.4095C27.7111 22.3571 27.632 22.319 27.5478 22.2975C27.4636 22.2759 27.376 22.2712 27.29 22.2838C27.204 22.2964 27.1214 22.3259 27.0469 22.3707Z" fill="url(#paint1_linear_11_250)"/>
<path d="M27.0469 18.4332L19.5 22.8341L11.9531 18.4332C11.8037 18.3588 11.6316 18.3441 11.4717 18.3922C11.3118 18.4402 11.1763 18.5474 11.0927 18.6919C11.0091 18.8363 10.9836 19.0072 11.0216 19.1698C11.0595 19.3323 11.158 19.4743 11.2969 19.5668L19.1719 24.1606C19.2722 24.2191 19.3863 24.2499 19.5025 24.2499C19.6186 24.2499 19.7327 24.2191 19.8331 24.1606L27.7081 19.5668C27.7837 19.524 27.8501 19.4667 27.9034 19.398C27.9566 19.3293 27.9958 19.2508 28.0184 19.1669C28.0411 19.083 28.0469 18.9954 28.0354 18.9093C28.024 18.8231 27.9956 18.7401 27.9518 18.6651C27.908 18.59 27.8498 18.5244 27.7804 18.472C27.7111 18.4196 27.632 18.3815 27.5478 18.36C27.4636 18.3384 27.376 18.3337 27.29 18.3463C27.204 18.3589 27.1214 18.3884 27.0469 18.4332Z" fill="url(#paint2_linear_11_250)"/>
<path d="M11.297 15.6293L19.172 20.2231C19.2723 20.2816 19.3864 20.3124 19.5026 20.3124C19.6187 20.3124 19.7328 20.2816 19.8332 20.2231L27.7082 15.6293C27.8072 15.5715 27.8894 15.4888 27.9465 15.3893C28.0037 15.2899 28.0337 15.1772 28.0337 15.0625C28.0337 14.9478 28.0037 14.8351 27.9465 14.7357C27.8894 14.6362 27.8072 14.5535 27.7082 14.4957L19.8332 9.90191C19.7328 9.84339 19.6187 9.81256 19.5026 9.81256C19.3864 9.81256 19.2723 9.84339 19.172 9.90191L11.297 14.4957C11.1979 14.5535 11.1157 14.6362 11.0586 14.7357C11.0015 14.8351 10.9714 14.9478 10.9714 15.0625C10.9714 15.1772 11.0015 15.2899 11.0586 15.3893C11.1157 15.4888 11.1979 15.5715 11.297 15.6293Z" fill="url(#paint3_linear_11_250)"/>
</g>
<defs>
<linearGradient id="paint0_linear_11_250" x1="19.5" y1="0" x2="19.5" y2="38" gradientUnits="userSpaceOnUse">
<stop stop-color="#147415"/>
<stop offset="1" stop-color="#11FF00"/>
</linearGradient>
<linearGradient id="paint1_linear_11_250" x1="19.5228" y1="22.2769" x2="19.5228" y2="28.1874" gradientUnits="userSpaceOnUse">
<stop stop-color="white"/>
</linearGradient>
<linearGradient id="paint2_linear_11_250" x1="19.5228" y1="18.3394" x2="19.5228" y2="24.2499" gradientUnits="userSpaceOnUse">
<stop stop-color="white"/>
</linearGradient>
<linearGradient id="paint3_linear_11_250" x1="19.5026" y1="9.81256" x2="19.5026" y2="20.3124" gradientUnits="userSpaceOnUse">
<stop stop-color="white"/>
</linearGradient>
<clipPath id="clip0_11_250">
<rect width="21" height="21" fill="white" transform="translate(9 8.5)"/>
</clipPath>
</defs>
</svg>
