<svg width="87" height="77" viewBox="0 0 87 77" fill="none" xmlns="http://www.w3.org/2000/svg">
<path d="M37.8599 22.3893C40.4022 20.5016 41.6733 19.5577 43.1251 19.5033C43.2415 19.4989 43.3581 19.4989 43.4745 19.5033C44.9263 19.5577 46.1974 20.5016 48.7397 22.3893C51.282 24.277 52.5532 25.2209 53.0524 26.6151C53.0925 26.727 53.1285 26.8403 53.1604 26.9548C53.5584 28.3827 53.0729 29.9099 52.1018 32.9643C51.1307 36.0187 50.6452 37.5459 49.502 38.462C49.4103 38.5355 49.316 38.6055 49.2193 38.672C48.0135 39.5 46.4423 39.5 43.2998 39.5C40.1573 39.5 38.5861 39.5 37.3803 38.672C37.2836 38.6055 37.1893 38.5355 37.0976 38.462C35.9544 37.5459 35.4689 36.0187 34.4978 32.9643C33.5268 29.9099 33.0412 28.3827 33.4392 26.9548C33.4711 26.8403 33.5071 26.727 33.5472 26.6151C34.0464 25.2209 35.3176 24.277 37.8599 22.3893Z" fill="#11FF00"/>
<path d="M34.4978 32.9643L34.9743 32.8128L34.4978 32.9643ZM33.4392 26.9548L33.9208 27.0891L33.4392 26.9548ZM37.8599 22.3893L37.5618 21.9879L37.8599 22.3893ZM33.5472 26.6151L34.0179 26.7837L33.5472 26.6151ZM37.3803 38.672L37.0973 39.0841L37.3803 38.672ZM37.0976 38.462L36.7849 38.8522L37.0976 38.462ZM52.1018 32.9643L51.6253 32.8128L52.1018 32.9643ZM49.502 38.462L49.8147 38.8522L49.502 38.462ZM49.2193 38.672L49.5023 39.0841L49.2193 38.672ZM48.7397 22.3893L49.0378 21.9879L48.7397 22.3893ZM53.0524 26.6151L52.5817 26.7837L53.0524 26.6151ZM53.1604 26.9548L52.6788 27.0891L53.1604 26.9548ZM43.4745 19.5033L43.4558 20.0029L43.4745 19.5033ZM43.1251 19.5033L43.1438 20.0029L43.1251 19.5033ZM41.3932 34.4129C41.117 34.4129 40.8932 34.6367 40.8932 34.9129C40.8932 35.189 41.117 35.4129 41.3932 35.4129V34.9129V34.4129ZM45.2064 35.4129C45.4826 35.4129 45.7064 35.189 45.7064 34.9129C45.7064 34.6367 45.4826 34.4129 45.2064 34.4129V34.9129V35.4129ZM34.4978 32.9643L34.9743 32.8128C34.4856 31.2755 34.1314 30.1594 33.9449 29.2492C33.7608 28.3503 33.7509 27.6986 33.9208 27.0891L33.4392 26.9548L32.9575 26.8206C32.7295 27.6389 32.7634 28.4647 32.9653 29.45C33.1649 30.424 33.539 31.5987 34.0213 33.1158L34.4978 32.9643ZM37.8599 22.3893L37.5618 21.9879C36.2994 22.9253 35.3202 23.6515 34.5977 24.3204C33.8663 24.9975 33.3629 25.6466 33.0764 26.4466L33.5472 26.6151L34.0179 26.7837C34.2307 26.1894 34.6125 25.6694 35.2771 25.0542C35.9505 24.4307 36.8781 23.7411 38.158 22.7907L37.8599 22.3893ZM33.4392 26.9548L33.9208 27.0891C33.9495 26.9861 33.9819 26.8842 34.0179 26.7837L33.5472 26.6151L33.0764 26.4466C33.0323 26.5697 32.9927 26.6945 32.9575 26.8206L33.4392 26.9548ZM43.2998 39.5V39C41.7175 39 40.5713 38.9993 39.6687 38.8995C38.7785 38.8011 38.1739 38.6103 37.6634 38.2598L37.3803 38.672L37.0973 39.0841C37.7926 39.5616 38.5765 39.7849 39.5589 39.8935C40.529 40.0007 41.7397 40 43.2998 40V39.5ZM34.4978 32.9643L34.0213 33.1158C34.5036 34.6328 34.8766 35.808 35.2754 36.7161C35.6787 37.6343 36.1269 38.3249 36.7849 38.8522L37.0976 38.462L37.4103 38.0718C36.9251 37.6831 36.559 37.1519 36.191 36.314C35.8185 35.4658 35.4631 34.3502 34.9743 32.8128L34.4978 32.9643ZM37.3803 38.672L37.6634 38.2598C37.5768 38.2003 37.4924 38.1377 37.4103 38.0718L37.0976 38.462L36.7849 38.8522C36.8862 38.9334 36.9904 39.0107 37.0973 39.0841L37.3803 38.672ZM52.1018 32.9643L51.6253 32.8128C51.1365 34.3502 50.7811 35.4658 50.4086 36.314C50.0406 37.1519 49.6745 37.6831 49.1893 38.0718L49.502 38.462L49.8147 38.8522C50.4727 38.3249 50.9209 37.6343 51.3242 36.7161C51.723 35.808 52.096 34.6328 52.5783 33.1158L52.1018 32.9643ZM43.2998 39.5V40C44.8599 40 46.0706 40.0007 47.0407 39.8935C48.0231 39.7849 48.807 39.5616 49.5023 39.0841L49.2193 38.672L48.9362 38.2598C48.4258 38.6103 47.8212 38.8011 46.9309 38.8995C46.0283 38.9993 44.8821 39 43.2998 39V39.5ZM49.502 38.462L49.1893 38.0718C49.1072 38.1377 49.0228 38.2003 48.9362 38.2598L49.2193 38.672L49.5023 39.0841C49.6092 39.0107 49.7134 38.9334 49.8147 38.8522L49.502 38.462ZM48.7397 22.3893L48.4416 22.7907C49.7215 23.7411 50.6491 24.4307 51.3225 25.0542C51.9871 25.6694 52.3689 26.1894 52.5817 26.7837L53.0524 26.6151L53.5232 26.4466C53.2367 25.6466 52.7333 24.9975 52.0019 24.3204C51.2794 23.6515 50.3002 22.9253 49.0378 21.9879L48.7397 22.3893ZM52.1018 32.9643L52.5783 33.1158C53.0606 31.5987 53.4347 30.424 53.6343 29.45C53.8362 28.4647 53.8702 27.6389 53.6421 26.8206L53.1604 26.9548L52.6788 27.0891C52.8487 27.6986 52.8388 28.3503 52.6547 29.2492C52.4682 30.1594 52.114 31.2755 51.6253 32.8128L52.1018 32.9643ZM53.0524 26.6151L52.5817 26.7837C52.6177 26.8842 52.6501 26.9861 52.6788 27.0891L53.1604 26.9548L53.6421 26.8206C53.6069 26.6945 53.5673 26.5697 53.5232 26.4466L53.0524 26.6151ZM48.7397 22.3893L49.0378 21.9879C47.7755 21.0506 46.7969 20.3231 45.9509 19.8274C45.0949 19.3258 44.3322 19.0351 43.4933 19.0036L43.4745 19.5033L43.4558 20.0029C44.0686 20.0259 44.6674 20.2343 45.4454 20.6902C46.2335 21.152 47.1617 21.8403 48.4416 22.7907L48.7397 22.3893ZM37.8599 22.3893L38.158 22.7907C39.4379 21.8403 40.3661 21.152 41.1542 20.6902C41.9323 20.2343 42.531 20.0259 43.1438 20.0029L43.1251 19.5033L43.1063 19.0036C42.2674 19.0351 41.5047 19.3258 40.6487 19.8274C39.8027 20.3231 38.8241 21.0506 37.5618 21.9879L37.8599 22.3893ZM43.4745 19.5033L43.4933 19.0036C43.3643 18.9988 43.2353 18.9988 43.1063 19.0036L43.1251 19.5033L43.1438 20.0029C43.2478 19.999 43.3518 19.999 43.4558 20.0029L43.4745 19.5033ZM41.3932 34.9129V35.4129H45.2064V34.9129V34.4129H41.3932V34.9129Z" fill="black"/>
<path d="M26.3158 56.5V48.1H27.5638V51.544H32.4238V48.1H33.6838V56.5H32.4238V52.744H27.5638V56.5H26.3158ZM38.0421 56.644C35.9661 56.644 34.7181 55.444 34.7181 53.452C34.7181 51.448 36.0501 50.248 38.0781 50.248C40.1181 50.248 41.4021 51.436 41.4021 53.44C41.4021 55.42 40.0941 56.644 38.0421 56.644ZM35.9181 53.452C35.9181 54.76 36.5901 55.576 38.0421 55.576C39.5181 55.576 40.2021 54.748 40.2021 53.44C40.2021 52.132 39.5181 51.304 38.0421 51.304C36.5901 51.304 35.9181 52.12 35.9181 53.452ZM42.3705 56.5V50.476H43.5225V51.22C44.0505 50.596 44.8185 50.248 45.5505 50.248C46.5225 50.248 47.1465 50.572 47.4825 51.28C48.0945 50.596 48.9105 50.248 49.7985 50.248C51.2385 50.248 52.0425 50.968 52.0425 52.396V56.5H50.8665V52.66C50.8665 51.736 50.5545 51.328 49.6425 51.328C48.8385 51.328 47.7945 51.748 47.7945 52.732V56.5H46.6305V52.66C46.6305 51.76 46.2945 51.328 45.3945 51.328C44.4825 51.328 43.5225 51.928 43.5225 52.924V56.5H42.3705ZM58.3402 52.912C58.2442 51.904 57.5362 51.304 56.2882 51.304C55.0642 51.304 54.3442 51.904 54.2602 52.912H58.3402ZM52.9642 53.452C52.9642 51.448 54.2962 50.248 56.3242 50.248C58.3642 50.248 59.6602 51.436 59.6482 53.44L59.6362 53.824H54.2122C54.2962 54.892 54.9682 55.576 56.2882 55.576C57.4402 55.576 58.1002 55.096 58.3162 54.268H59.5642C59.2042 55.828 57.9802 56.644 56.2882 56.644C54.2122 56.644 52.9642 55.444 52.9642 53.452Z" fill="#11FF00"/>
</svg>
